<mxfile host="app.diagrams.net" modified="2024-02-25T07:48:03.802Z" agent="Mozilla/5.0 (Macintosh; Intel Mac OS X 10_15_7) AppleWebKit/605.1.15 (KHTML, like Gecko) Version/17.3.1 Safari/605.1.15" etag="xK8qjVkHST6oswvSLWde" version="23.1.6" type="device">
  <diagram id="R2lEEEUBdFMjLlhIrx00" name="Page-1">
    <mxGraphModel dx="3915" dy="2660" grid="1" gridSize="10" guides="1" tooltips="1" connect="1" arrows="1" fold="1" page="1" pageScale="1" pageWidth="850" pageHeight="1100" math="0" shadow="0" extFonts="Permanent Marker^https://fonts.googleapis.com/css?family=Permanent+Marker">
      <root>
        <mxCell id="0" />
        <mxCell id="1" parent="0" />
        <mxCell id="unJ9gnNb-Jezl2MU4Mml-9" value="&lt;h1&gt;&lt;b&gt;&lt;font&gt;Recipes&lt;/font&gt;&lt;/b&gt;&lt;/h1&gt;" style="rounded=0;whiteSpace=wrap;html=1;fillColor=#FFFFFF;fontColor=#000000;" parent="1" vertex="1">
          <mxGeometry x="340" y="250" width="220" height="120" as="geometry" />
        </mxCell>
        <mxCell id="unJ9gnNb-Jezl2MU4Mml-10" value="&lt;h1&gt;&lt;strong style=&quot;border: 0px solid rgb(227, 227, 227); box-sizing: border-box; caret-color: rgb(236, 236, 236); font-family: Söhne, ui-sans-serif, system-ui, -apple-system, &amp;quot;Segoe UI&amp;quot;, Roboto, Ubuntu, Cantarell, &amp;quot;Noto Sans&amp;quot;, sans-serif, &amp;quot;Helvetica Neue&amp;quot;, Arial, &amp;quot;Apple Color Emoji&amp;quot;, &amp;quot;Segoe UI Emoji&amp;quot;, &amp;quot;Segoe UI Symbol&amp;quot;, &amp;quot;Noto Color Emoji&amp;quot;; text-align: left;&quot;&gt;&lt;font style=&quot;font-size: 24px;&quot;&gt;Ingredients&lt;/font&gt;&lt;/strong&gt;&lt;br&gt;&lt;/h1&gt;" style="rounded=0;whiteSpace=wrap;html=1;fillColor=#FFFFFF;fontColor=#000000;" parent="1" vertex="1">
          <mxGeometry x="890" y="250" width="220" height="120" as="geometry" />
        </mxCell>
        <mxCell id="unJ9gnNb-Jezl2MU4Mml-11" value="&lt;h1&gt;&lt;strong style=&quot;border: 0px solid rgb(227, 227, 227); box-sizing: border-box; caret-color: rgb(236, 236, 236); font-family: Söhne, ui-sans-serif, system-ui, -apple-system, &amp;quot;Segoe UI&amp;quot;, Roboto, Ubuntu, Cantarell, &amp;quot;Noto Sans&amp;quot;, sans-serif, &amp;quot;Helvetica Neue&amp;quot;, Arial, &amp;quot;Apple Color Emoji&amp;quot;, &amp;quot;Segoe UI Emoji&amp;quot;, &amp;quot;Segoe UI Symbol&amp;quot;, &amp;quot;Noto Color Emoji&amp;quot;; text-align: left;&quot;&gt;&lt;font style=&quot;font-size: 24px;&quot;&gt;Directions&lt;/font&gt;&lt;/strong&gt;&lt;br&gt;&lt;/h1&gt;" style="rounded=0;whiteSpace=wrap;html=1;fillColor=#FFFFFF;fontColor=#000000;" parent="1" vertex="1">
          <mxGeometry x="-270" y="-270" width="220" height="120" as="geometry" />
        </mxCell>
        <mxCell id="unJ9gnNb-Jezl2MU4Mml-12" value="&lt;h1&gt;&lt;strong style=&quot;border: 0px solid rgb(227, 227, 227); box-sizing: border-box; caret-color: rgb(236, 236, 236); font-family: Söhne, ui-sans-serif, system-ui, -apple-system, &amp;quot;Segoe UI&amp;quot;, Roboto, Ubuntu, Cantarell, &amp;quot;Noto Sans&amp;quot;, sans-serif, &amp;quot;Helvetica Neue&amp;quot;, Arial, &amp;quot;Apple Color Emoji&amp;quot;, &amp;quot;Segoe UI Emoji&amp;quot;, &amp;quot;Segoe UI Symbol&amp;quot;, &amp;quot;Noto Color Emoji&amp;quot;; text-align: left;&quot;&gt;&lt;font style=&quot;font-size: 24px;&quot;&gt;Categories&lt;/font&gt;&lt;/strong&gt;&lt;br&gt;&lt;/h1&gt;" style="rounded=0;whiteSpace=wrap;html=1;fillColor=#FFFFFF;fontColor=#000000;" parent="1" vertex="1">
          <mxGeometry x="990" y="792" width="220" height="120" as="geometry" />
        </mxCell>
        <mxCell id="unJ9gnNb-Jezl2MU4Mml-15" value="&lt;h1&gt;&lt;strong style=&quot;border: 0px solid rgb(227, 227, 227); box-sizing: border-box; caret-color: rgb(236, 236, 236); font-family: Söhne, ui-sans-serif, system-ui, -apple-system, &amp;quot;Segoe UI&amp;quot;, Roboto, Ubuntu, Cantarell, &amp;quot;Noto Sans&amp;quot;, sans-serif, &amp;quot;Helvetica Neue&amp;quot;, Arial, &amp;quot;Apple Color Emoji&amp;quot;, &amp;quot;Segoe UI Emoji&amp;quot;, &amp;quot;Segoe UI Symbol&amp;quot;, &amp;quot;Noto Color Emoji&amp;quot;; text-align: left;&quot;&gt;&lt;font style=&quot;font-size: 24px;&quot;&gt;RecipeIngredients&lt;/font&gt;&lt;/strong&gt;&lt;br&gt;&lt;/h1&gt;" style="rounded=0;whiteSpace=wrap;html=1;fillColor=#FFFFFF;fontColor=#000000;" parent="1" vertex="1">
          <mxGeometry x="890" y="-360" width="220" height="120" as="geometry" />
        </mxCell>
        <mxCell id="unJ9gnNb-Jezl2MU4Mml-17" value="&lt;font size=&quot;1&quot;&gt;&lt;u style=&quot;font-size: 16px;&quot;&gt;&lt;b&gt;recipe_id&lt;/b&gt;&lt;/u&gt;&lt;/font&gt;" style="ellipse;whiteSpace=wrap;html=1;fillColor=#FFFFFF;fontColor=#000000;" parent="1" vertex="1">
          <mxGeometry x="50" y="470" width="110" height="80" as="geometry" />
        </mxCell>
        <mxCell id="unJ9gnNb-Jezl2MU4Mml-18" value="&lt;font style=&quot;font-size: 16px;&quot;&gt;&amp;nbsp; recipe_name&lt;/font&gt;" style="ellipse;whiteSpace=wrap;html=1;fillColor=#FFFFFF;align=left;fontColor=#000000;" parent="1" vertex="1">
          <mxGeometry x="50" y="380" width="110" height="80" as="geometry" />
        </mxCell>
        <mxCell id="unJ9gnNb-Jezl2MU4Mml-19" value="&lt;font style=&quot;font-size: 16px;&quot;&gt;cooking_time&lt;/font&gt;" style="ellipse;whiteSpace=wrap;html=1;fillColor=#FFFFFF;fontColor=#000000;" parent="1" vertex="1">
          <mxGeometry x="50" y="290" width="110" height="80" as="geometry" />
        </mxCell>
        <mxCell id="unJ9gnNb-Jezl2MU4Mml-20" value="&lt;font style=&quot;font-size: 14px;&quot;&gt;preperation_time&lt;/font&gt;" style="ellipse;whiteSpace=wrap;html=1;fillColor=#FFFFFF;fontColor=#000000;" parent="1" vertex="1">
          <mxGeometry x="50" y="200" width="110" height="80" as="geometry" />
        </mxCell>
        <mxCell id="unJ9gnNb-Jezl2MU4Mml-21" value="&lt;font style=&quot;font-size: 16px;&quot;&gt;spiciness&lt;/font&gt;" style="ellipse;whiteSpace=wrap;html=1;fillColor=#FFFFFF;fontColor=#000000;" parent="1" vertex="1">
          <mxGeometry x="50" y="100" width="110" height="80" as="geometry" />
        </mxCell>
        <mxCell id="unJ9gnNb-Jezl2MU4Mml-22" value="" style="endArrow=none;html=1;rounded=0;entryX=1;entryY=0.5;entryDx=0;entryDy=0;exitX=0;exitY=0.5;exitDx=0;exitDy=0;fillColor=#FFFFFF;fontColor=#000000;" parent="1" source="unJ9gnNb-Jezl2MU4Mml-9" target="unJ9gnNb-Jezl2MU4Mml-17" edge="1">
          <mxGeometry width="50" height="50" relative="1" as="geometry">
            <mxPoint x="410" y="260" as="sourcePoint" />
            <mxPoint x="460" y="210" as="targetPoint" />
          </mxGeometry>
        </mxCell>
        <mxCell id="unJ9gnNb-Jezl2MU4Mml-23" value="" style="endArrow=none;html=1;rounded=0;entryX=1;entryY=0.5;entryDx=0;entryDy=0;exitX=0;exitY=0.5;exitDx=0;exitDy=0;fillColor=#FFFFFF;fontColor=#000000;" parent="1" source="unJ9gnNb-Jezl2MU4Mml-9" target="unJ9gnNb-Jezl2MU4Mml-18" edge="1">
          <mxGeometry width="50" height="50" relative="1" as="geometry">
            <mxPoint x="425" y="200" as="sourcePoint" />
            <mxPoint x="185" y="120" as="targetPoint" />
          </mxGeometry>
        </mxCell>
        <mxCell id="unJ9gnNb-Jezl2MU4Mml-24" value="" style="endArrow=none;html=1;rounded=0;entryX=1;entryY=0.5;entryDx=0;entryDy=0;exitX=0;exitY=0.5;exitDx=0;exitDy=0;fillColor=#FFFFFF;fontColor=#000000;" parent="1" source="unJ9gnNb-Jezl2MU4Mml-9" target="unJ9gnNb-Jezl2MU4Mml-19" edge="1">
          <mxGeometry width="50" height="50" relative="1" as="geometry">
            <mxPoint x="430" y="190" as="sourcePoint" />
            <mxPoint x="310" y="120" as="targetPoint" />
          </mxGeometry>
        </mxCell>
        <mxCell id="unJ9gnNb-Jezl2MU4Mml-25" value="" style="endArrow=none;html=1;rounded=0;entryX=1;entryY=0.5;entryDx=0;entryDy=0;exitX=0;exitY=0.5;exitDx=0;exitDy=0;fillColor=#FFFFFF;fontColor=#000000;" parent="1" source="unJ9gnNb-Jezl2MU4Mml-9" target="unJ9gnNb-Jezl2MU4Mml-20" edge="1">
          <mxGeometry width="50" height="50" relative="1" as="geometry">
            <mxPoint x="445" y="220" as="sourcePoint" />
            <mxPoint x="320" y="130" as="targetPoint" />
          </mxGeometry>
        </mxCell>
        <mxCell id="unJ9gnNb-Jezl2MU4Mml-26" value="" style="endArrow=none;html=1;rounded=0;entryX=1;entryY=0.5;entryDx=0;entryDy=0;exitX=0;exitY=0.5;exitDx=0;exitDy=0;fillColor=#FFFFFF;fontColor=#000000;" parent="1" source="unJ9gnNb-Jezl2MU4Mml-9" target="unJ9gnNb-Jezl2MU4Mml-21" edge="1">
          <mxGeometry width="50" height="50" relative="1" as="geometry">
            <mxPoint x="455" y="230" as="sourcePoint" />
            <mxPoint x="330" y="140" as="targetPoint" />
          </mxGeometry>
        </mxCell>
        <mxCell id="5X70_3H_puwpSHRubpwN-1" value="&lt;font style=&quot;font-size: 16px;&quot;&gt;&lt;b&gt;&lt;u&gt;ingredient_id&lt;/u&gt;&lt;/b&gt;&lt;/font&gt;" style="ellipse;whiteSpace=wrap;html=1;fillColor=#FFFFFF;fontColor=#000000;" parent="1" vertex="1">
          <mxGeometry x="1220" y="170" width="110" height="80" as="geometry" />
        </mxCell>
        <mxCell id="5X70_3H_puwpSHRubpwN-2" value="" style="endArrow=none;html=1;rounded=0;entryX=1;entryY=0.5;entryDx=0;entryDy=0;exitX=0;exitY=0.5;exitDx=0;exitDy=0;fillColor=#FFFFFF;fontColor=#000000;" parent="1" source="5X70_3H_puwpSHRubpwN-1" target="unJ9gnNb-Jezl2MU4Mml-10" edge="1">
          <mxGeometry width="50" height="50" relative="1" as="geometry">
            <mxPoint x="1330" y="310" as="sourcePoint" />
            <mxPoint x="1320" y="140" as="targetPoint" />
          </mxGeometry>
        </mxCell>
        <mxCell id="5X70_3H_puwpSHRubpwN-3" value="&lt;font style=&quot;font-size: 14px;&quot;&gt;ingredient_name&lt;/font&gt;" style="ellipse;whiteSpace=wrap;html=1;fillColor=#FFFFFF;fontColor=#000000;" parent="1" vertex="1">
          <mxGeometry x="1220" y="280" width="110" height="80" as="geometry" />
        </mxCell>
        <mxCell id="5X70_3H_puwpSHRubpwN-4" value="" style="endArrow=none;html=1;rounded=0;entryX=1;entryY=0.5;entryDx=0;entryDy=0;exitX=0;exitY=0.5;exitDx=0;exitDy=0;fillColor=#FFFFFF;fontColor=#000000;" parent="1" source="5X70_3H_puwpSHRubpwN-3" target="unJ9gnNb-Jezl2MU4Mml-10" edge="1">
          <mxGeometry width="50" height="50" relative="1" as="geometry">
            <mxPoint x="1230" y="220" as="sourcePoint" />
            <mxPoint x="1110" y="320" as="targetPoint" />
          </mxGeometry>
        </mxCell>
        <mxCell id="5X70_3H_puwpSHRubpwN-5" value="&lt;font style=&quot;font-size: 16px;&quot;&gt;&lt;b&gt;&lt;u&gt;direction_id&lt;/u&gt;&lt;/b&gt;&lt;/font&gt;" style="ellipse;whiteSpace=wrap;html=1;fillColor=#FFFFFF;fontColor=#000000;" parent="1" vertex="1">
          <mxGeometry x="-310" y="-500" width="110" height="80" as="geometry" />
        </mxCell>
        <mxCell id="5X70_3H_puwpSHRubpwN-6" value="&lt;font style=&quot;font-size: 16px;&quot;&gt;instruction&lt;/font&gt;" style="ellipse;whiteSpace=wrap;html=1;fillColor=#FFFFFF;fontColor=#000000;" parent="1" vertex="1">
          <mxGeometry x="-160" y="-500" width="110" height="80" as="geometry" />
        </mxCell>
        <mxCell id="5X70_3H_puwpSHRubpwN-7" value="" style="endArrow=none;html=1;rounded=0;entryX=0.5;entryY=0;entryDx=0;entryDy=0;exitX=0.5;exitY=1;exitDx=0;exitDy=0;fillColor=#FFFFFF;fontColor=#000000;" parent="1" source="5X70_3H_puwpSHRubpwN-5" target="unJ9gnNb-Jezl2MU4Mml-11" edge="1">
          <mxGeometry width="50" height="50" relative="1" as="geometry">
            <mxPoint x="50" y="-410" as="sourcePoint" />
            <mxPoint x="-40" y="-300" as="targetPoint" />
            <Array as="points" />
          </mxGeometry>
        </mxCell>
        <mxCell id="5X70_3H_puwpSHRubpwN-8" value="" style="endArrow=none;html=1;rounded=0;entryX=0.5;entryY=0;entryDx=0;entryDy=0;exitX=0.5;exitY=1;exitDx=0;exitDy=0;fillColor=#FFFFFF;fontColor=#000000;" parent="1" source="5X70_3H_puwpSHRubpwN-6" target="unJ9gnNb-Jezl2MU4Mml-11" edge="1">
          <mxGeometry width="50" height="50" relative="1" as="geometry">
            <mxPoint x="50" y="-240" as="sourcePoint" />
            <mxPoint x="-30" y="-190" as="targetPoint" />
            <Array as="points" />
          </mxGeometry>
        </mxCell>
        <mxCell id="5X70_3H_puwpSHRubpwN-9" value="&lt;font style=&quot;font-size: 16px;&quot;&gt;&lt;b&gt;&lt;u&gt;category_id&lt;/u&gt;&lt;/b&gt;&lt;/font&gt;" style="ellipse;whiteSpace=wrap;html=1;fillColor=#FFFFFF;fontColor=#000000;" parent="1" vertex="1">
          <mxGeometry x="1300" y="782" width="110" height="80" as="geometry" />
        </mxCell>
        <mxCell id="5X70_3H_puwpSHRubpwN-10" value="&lt;font style=&quot;font-size: 15px;&quot;&gt;category_name&lt;/font&gt;" style="ellipse;whiteSpace=wrap;html=1;fillColor=#FFFFFF;fontColor=#000000;" parent="1" vertex="1">
          <mxGeometry x="1300" y="902" width="110" height="80" as="geometry" />
        </mxCell>
        <mxCell id="5X70_3H_puwpSHRubpwN-11" value="" style="endArrow=none;html=1;rounded=0;entryX=1;entryY=0.5;entryDx=0;entryDy=0;exitX=0;exitY=0.5;exitDx=0;exitDy=0;fillColor=#FFFFFF;fontColor=#000000;" parent="1" source="5X70_3H_puwpSHRubpwN-9" target="unJ9gnNb-Jezl2MU4Mml-12" edge="1">
          <mxGeometry width="50" height="50" relative="1" as="geometry">
            <mxPoint x="1330" y="672" as="sourcePoint" />
            <mxPoint x="1240" y="882" as="targetPoint" />
            <Array as="points" />
          </mxGeometry>
        </mxCell>
        <mxCell id="5X70_3H_puwpSHRubpwN-12" value="" style="endArrow=none;html=1;rounded=0;entryX=1;entryY=0.5;entryDx=0;entryDy=0;exitX=0;exitY=0.5;exitDx=0;exitDy=0;fillColor=#FFFFFF;fontColor=#000000;" parent="1" source="5X70_3H_puwpSHRubpwN-10" target="unJ9gnNb-Jezl2MU4Mml-12" edge="1">
          <mxGeometry width="50" height="50" relative="1" as="geometry">
            <mxPoint x="1330" y="842" as="sourcePoint" />
            <mxPoint x="1240" y="882" as="targetPoint" />
            <Array as="points" />
          </mxGeometry>
        </mxCell>
        <mxCell id="5X70_3H_puwpSHRubpwN-13" value="&lt;font style=&quot;font-size: 16px;&quot;&gt;&lt;b&gt;&lt;u&gt;recipe_id&lt;/u&gt;&lt;/b&gt;&lt;/font&gt;" style="ellipse;whiteSpace=wrap;html=1;fillColor=#FFFFFF;fontColor=#000000;" parent="1" vertex="1">
          <mxGeometry x="475" y="1022" width="110" height="80" as="geometry" />
        </mxCell>
        <mxCell id="5X70_3H_puwpSHRubpwN-14" value="&lt;b style=&quot;border-color: var(--border-color); caret-color: rgb(255, 255, 255); font-size: 16px;&quot;&gt;&lt;u style=&quot;border-color: var(--border-color);&quot;&gt;category_id&lt;/u&gt;&lt;/b&gt;" style="ellipse;whiteSpace=wrap;html=1;fillColor=#FFFFFF;fontColor=#000000;" parent="1" vertex="1">
          <mxGeometry x="330" y="1020" width="110" height="80" as="geometry" />
        </mxCell>
        <mxCell id="5X70_3H_puwpSHRubpwN-15" value="" style="endArrow=none;html=1;rounded=0;exitX=0.5;exitY=0;exitDx=0;exitDy=0;entryX=0.5;entryY=1;entryDx=0;entryDy=0;fillColor=#FFFFFF;fontColor=#000000;" parent="1" source="5X70_3H_puwpSHRubpwN-13" target="IqhT8fRPCh5wSAFW7fhL-16" edge="1">
          <mxGeometry width="50" height="50" relative="1" as="geometry">
            <mxPoint x="1335" y="1122" as="sourcePoint" />
            <mxPoint x="455" y="912" as="targetPoint" />
            <Array as="points" />
          </mxGeometry>
        </mxCell>
        <mxCell id="5X70_3H_puwpSHRubpwN-16" value="" style="endArrow=none;html=1;rounded=0;entryX=0.5;entryY=1;entryDx=0;entryDy=0;exitX=0.5;exitY=0;exitDx=0;exitDy=0;fillColor=#FFFFFF;fontColor=#000000;" parent="1" source="5X70_3H_puwpSHRubpwN-14" target="IqhT8fRPCh5wSAFW7fhL-16" edge="1">
          <mxGeometry width="50" height="50" relative="1" as="geometry">
            <mxPoint x="1335" y="1292" as="sourcePoint" />
            <mxPoint x="455" y="912" as="targetPoint" />
            <Array as="points" />
          </mxGeometry>
        </mxCell>
        <mxCell id="5X70_3H_puwpSHRubpwN-18" value="&lt;font style=&quot;font-size: 16px;&quot;&gt;&lt;b&gt;&lt;u&gt;recipe_id&lt;/u&gt;&lt;/b&gt;&lt;/font&gt;" style="ellipse;whiteSpace=wrap;html=1;fillColor=#FFFFFF;fontColor=#000000;" parent="1" vertex="1">
          <mxGeometry x="800" y="-540" width="110" height="80" as="geometry" />
        </mxCell>
        <mxCell id="5X70_3H_puwpSHRubpwN-19" value="&lt;b style=&quot;border-color: var(--border-color); caret-color: rgb(255, 255, 255); font-size: 16px;&quot;&gt;&lt;u style=&quot;border-color: var(--border-color);&quot;&gt;ingredient_id&lt;/u&gt;&lt;/b&gt;" style="ellipse;whiteSpace=wrap;html=1;fillColor=#FFFFFF;fontColor=#000000;" parent="1" vertex="1">
          <mxGeometry x="940" y="-540" width="110" height="80" as="geometry" />
        </mxCell>
        <mxCell id="5X70_3H_puwpSHRubpwN-20" value="" style="endArrow=none;html=1;rounded=0;exitX=0.5;exitY=1;exitDx=0;exitDy=0;entryX=0.5;entryY=0;entryDx=0;entryDy=0;fillColor=#FFFFFF;fontColor=#000000;" parent="1" source="5X70_3H_puwpSHRubpwN-18" target="unJ9gnNb-Jezl2MU4Mml-15" edge="1">
          <mxGeometry width="50" height="50" relative="1" as="geometry">
            <mxPoint x="1300" y="-540" as="sourcePoint" />
            <mxPoint x="1170" y="-310" as="targetPoint" />
            <Array as="points" />
          </mxGeometry>
        </mxCell>
        <mxCell id="5X70_3H_puwpSHRubpwN-21" value="" style="endArrow=none;html=1;rounded=0;entryX=0.5;entryY=0;entryDx=0;entryDy=0;exitX=0.5;exitY=1;exitDx=0;exitDy=0;fillColor=#FFFFFF;fontColor=#000000;" parent="1" source="5X70_3H_puwpSHRubpwN-19" target="unJ9gnNb-Jezl2MU4Mml-15" edge="1">
          <mxGeometry width="50" height="50" relative="1" as="geometry">
            <mxPoint x="1300" y="-370" as="sourcePoint" />
            <mxPoint x="1170" y="-310" as="targetPoint" />
            <Array as="points" />
          </mxGeometry>
        </mxCell>
        <mxCell id="5X70_3H_puwpSHRubpwN-22" value="&lt;font style=&quot;font-size: 16px;&quot;&gt;&lt;span&gt;&lt;span&gt;quantity&lt;/span&gt;&lt;/span&gt;&lt;/font&gt;" style="ellipse;whiteSpace=wrap;html=1;fillColor=#FFFFFF;fontStyle=4;fontColor=#000000;" parent="1" vertex="1">
          <mxGeometry x="1070" y="-540" width="110" height="80" as="geometry" />
        </mxCell>
        <mxCell id="5X70_3H_puwpSHRubpwN-23" value="&lt;span style=&quot;border-color: var(--border-color); caret-color: rgb(255, 255, 255); font-size: 16px;&quot;&gt;&lt;span style=&quot;border-color: var(--border-color);&quot;&gt;unit&lt;/span&gt;&lt;/span&gt;" style="ellipse;whiteSpace=wrap;html=1;fillColor=#FFFFFF;fontStyle=4;fontColor=#000000;" parent="1" vertex="1">
          <mxGeometry x="1200" y="-530" width="110" height="80" as="geometry" />
        </mxCell>
        <mxCell id="5X70_3H_puwpSHRubpwN-24" value="" style="endArrow=none;html=1;rounded=0;exitX=0.5;exitY=1;exitDx=0;exitDy=0;entryX=0.5;entryY=0;entryDx=0;entryDy=0;fillColor=#FFFFFF;fontColor=#000000;" parent="1" source="5X70_3H_puwpSHRubpwN-22" target="unJ9gnNb-Jezl2MU4Mml-15" edge="1">
          <mxGeometry width="50" height="50" relative="1" as="geometry">
            <mxPoint x="1300" y="-330" as="sourcePoint" />
            <mxPoint x="1170" y="-100" as="targetPoint" />
            <Array as="points" />
          </mxGeometry>
        </mxCell>
        <mxCell id="5X70_3H_puwpSHRubpwN-25" value="" style="endArrow=none;html=1;rounded=0;entryX=0.5;entryY=0;entryDx=0;entryDy=0;exitX=0.5;exitY=1;exitDx=0;exitDy=0;fillColor=#FFFFFF;fontColor=#000000;" parent="1" source="5X70_3H_puwpSHRubpwN-23" target="unJ9gnNb-Jezl2MU4Mml-15" edge="1">
          <mxGeometry width="50" height="50" relative="1" as="geometry">
            <mxPoint x="1300" y="-160" as="sourcePoint" />
            <mxPoint x="1170" y="-100" as="targetPoint" />
            <Array as="points" />
          </mxGeometry>
        </mxCell>
        <mxCell id="5X70_3H_puwpSHRubpwN-26" value="&lt;span style=&quot;border-color: var(--border-color); caret-color: rgb(255, 255, 255); font-size: 16px;&quot;&gt;&lt;span style=&quot;border-color: var(--border-color);&quot;&gt;prep_type&lt;/span&gt;&lt;/span&gt;" style="ellipse;whiteSpace=wrap;html=1;fillColor=#FFFFFF;fontStyle=4;fontColor=#000000;" parent="1" vertex="1">
          <mxGeometry x="1330" y="-530" width="110" height="80" as="geometry" />
        </mxCell>
        <mxCell id="5X70_3H_puwpSHRubpwN-27" value="" style="endArrow=none;html=1;rounded=0;entryX=0.5;entryY=0;entryDx=0;entryDy=0;exitX=0.5;exitY=1;exitDx=0;exitDy=0;fillColor=#FFFFFF;fontColor=#000000;" parent="1" source="5X70_3H_puwpSHRubpwN-26" target="unJ9gnNb-Jezl2MU4Mml-15" edge="1">
          <mxGeometry width="50" height="50" relative="1" as="geometry">
            <mxPoint x="1250" y="-40" as="sourcePoint" />
            <mxPoint x="1120" y="-290" as="targetPoint" />
            <Array as="points" />
          </mxGeometry>
        </mxCell>
        <mxCell id="5X70_3H_puwpSHRubpwN-28" value="&lt;font style=&quot;font-size: 16px;&quot;&gt;&lt;b&gt;&lt;u&gt;recipe_id&lt;/u&gt;&lt;/b&gt;&lt;/font&gt;" style="ellipse;whiteSpace=wrap;html=1;fillColor=#FFFFFF;fontColor=#000000;" parent="1" vertex="1">
          <mxGeometry x="250" y="-520" width="110" height="80" as="geometry" />
        </mxCell>
        <mxCell id="5X70_3H_puwpSHRubpwN-29" value="&lt;font style=&quot;font-size: 16px;&quot;&gt;&lt;b&gt;&lt;u&gt;direction_id&lt;/u&gt;&lt;/b&gt;&lt;/font&gt;" style="ellipse;whiteSpace=wrap;html=1;fillColor=#FFFFFF;fontColor=#000000;" parent="1" vertex="1">
          <mxGeometry x="400" y="-530" width="110" height="80" as="geometry" />
        </mxCell>
        <mxCell id="5X70_3H_puwpSHRubpwN-30" value="&lt;span style=&quot;border-color: var(--border-color); caret-color: rgb(255, 255, 255); font-size: 16px;&quot;&gt;&lt;span style=&quot;border-color: var(--border-color);&quot;&gt;step_number&lt;/span&gt;&lt;/span&gt;" style="ellipse;whiteSpace=wrap;html=1;fillColor=#FFFFFF;fontStyle=4;fontColor=#000000;" parent="1" vertex="1">
          <mxGeometry x="550" y="-520" width="110" height="80" as="geometry" />
        </mxCell>
        <mxCell id="5X70_3H_puwpSHRubpwN-31" value="" style="endArrow=none;html=1;rounded=0;exitX=0.5;exitY=1;exitDx=0;exitDy=0;entryX=0.5;entryY=0;entryDx=0;entryDy=0;fillColor=#FFFFFF;fontColor=#000000;" parent="1" source="5X70_3H_puwpSHRubpwN-28" target="IqhT8fRPCh5wSAFW7fhL-5" edge="1">
          <mxGeometry width="50" height="50" relative="1" as="geometry">
            <mxPoint x="815" y="-340" as="sourcePoint" />
            <mxPoint x="445" y="-270" as="targetPoint" />
          </mxGeometry>
        </mxCell>
        <mxCell id="5X70_3H_puwpSHRubpwN-32" value="" style="endArrow=none;html=1;rounded=0;exitX=0.5;exitY=0;exitDx=0;exitDy=0;entryX=0.5;entryY=0;entryDx=0;entryDy=0;fillColor=#FFFFFF;fontColor=#000000;" parent="1" source="5X70_3H_puwpSHRubpwN-29" target="IqhT8fRPCh5wSAFW7fhL-5" edge="1">
          <mxGeometry width="50" height="50" relative="1" as="geometry">
            <mxPoint x="290" y="-20" as="sourcePoint" />
            <mxPoint x="445" y="-270" as="targetPoint" />
          </mxGeometry>
        </mxCell>
        <mxCell id="5X70_3H_puwpSHRubpwN-33" value="" style="endArrow=none;html=1;rounded=0;exitX=0.5;exitY=1;exitDx=0;exitDy=0;entryX=0.5;entryY=0;entryDx=0;entryDy=0;fillColor=#FFFFFF;fontColor=#000000;" parent="1" source="5X70_3H_puwpSHRubpwN-30" target="IqhT8fRPCh5wSAFW7fhL-5" edge="1">
          <mxGeometry width="50" height="50" relative="1" as="geometry">
            <mxPoint x="440" y="-20" as="sourcePoint" />
            <mxPoint x="445" y="-270" as="targetPoint" />
          </mxGeometry>
        </mxCell>
        <mxCell id="5X70_3H_puwpSHRubpwN-34" value="&lt;font style=&quot;font-size: 24px;&quot;&gt;contain&lt;/font&gt;" style="rhombus;whiteSpace=wrap;html=1;fillColor=#FFFFFF;fontColor=#000000;" parent="1" vertex="1">
          <mxGeometry x="660" y="240" width="140" height="140" as="geometry" />
        </mxCell>
        <mxCell id="ERNmaeZfTY2ursN2km8a-1" value="" style="endArrow=none;html=1;rounded=0;exitX=1;exitY=0.5;exitDx=0;exitDy=0;strokeWidth=6;fillColor=#FFFFFF;fontColor=#000000;" parent="1" source="unJ9gnNb-Jezl2MU4Mml-9" edge="1">
          <mxGeometry width="50" height="50" relative="1" as="geometry">
            <mxPoint x="770" y="350" as="sourcePoint" />
            <mxPoint x="670" y="310" as="targetPoint" />
          </mxGeometry>
        </mxCell>
        <mxCell id="ERNmaeZfTY2ursN2km8a-3" value="&lt;font style=&quot;font-size: 25px;&quot;&gt;M&lt;/font&gt;" style="edgeLabel;html=1;align=center;verticalAlign=middle;resizable=0;points=[];fillColor=#FFFFFF;fontColor=#000000;" parent="ERNmaeZfTY2ursN2km8a-1" vertex="1" connectable="0">
          <mxGeometry x="-0.4303" y="1" relative="1" as="geometry">
            <mxPoint as="offset" />
          </mxGeometry>
        </mxCell>
        <mxCell id="ERNmaeZfTY2ursN2km8a-2" value="" style="endArrow=none;html=1;rounded=0;exitX=1;exitY=0.5;exitDx=0;exitDy=0;entryX=0;entryY=0.5;entryDx=0;entryDy=0;strokeWidth=6;fillColor=#FFFFFF;fontColor=#000000;" parent="1" source="5X70_3H_puwpSHRubpwN-34" target="unJ9gnNb-Jezl2MU4Mml-10" edge="1">
          <mxGeometry width="50" height="50" relative="1" as="geometry">
            <mxPoint x="720" y="430" as="sourcePoint" />
            <mxPoint x="830" y="430" as="targetPoint" />
          </mxGeometry>
        </mxCell>
        <mxCell id="ERNmaeZfTY2ursN2km8a-5" value="M" style="edgeLabel;html=1;align=center;verticalAlign=middle;resizable=0;points=[];fontSize=24;fillColor=#FFFFFF;fontColor=#000000;" parent="ERNmaeZfTY2ursN2km8a-2" vertex="1" connectable="0">
          <mxGeometry x="0.0917" y="-2" relative="1" as="geometry">
            <mxPoint as="offset" />
          </mxGeometry>
        </mxCell>
        <mxCell id="ERNmaeZfTY2ursN2km8a-6" value="&lt;font size=&quot;5&quot;&gt;&lt;span style=&quot;caret-color: rgb(255, 255, 255);&quot;&gt;have&lt;/span&gt;&lt;/font&gt;" style="rhombus;whiteSpace=wrap;html=1;fillColor=#FFFFFF;fontColor=#000000;" parent="1" vertex="1">
          <mxGeometry x="383" y="527" width="140" height="140" as="geometry" />
        </mxCell>
        <mxCell id="ERNmaeZfTY2ursN2km8a-7" value="" style="endArrow=none;html=1;rounded=0;exitX=0.5;exitY=1;exitDx=0;exitDy=0;entryX=0.5;entryY=0;entryDx=0;entryDy=0;strokeWidth=6;fillColor=#FFFFFF;fontColor=#000000;" parent="1" source="unJ9gnNb-Jezl2MU4Mml-9" target="ERNmaeZfTY2ursN2km8a-6" edge="1">
          <mxGeometry width="50" height="50" relative="1" as="geometry">
            <mxPoint x="570" y="320" as="sourcePoint" />
            <mxPoint x="680" y="320" as="targetPoint" />
          </mxGeometry>
        </mxCell>
        <mxCell id="ERNmaeZfTY2ursN2km8a-8" value="&lt;span style=&quot;font-size: 25px;&quot;&gt;N&lt;/span&gt;" style="edgeLabel;html=1;align=center;verticalAlign=middle;resizable=0;points=[];fillColor=#FFFFFF;fontColor=#000000;" parent="ERNmaeZfTY2ursN2km8a-7" vertex="1" connectable="0">
          <mxGeometry x="-0.4303" y="1" relative="1" as="geometry">
            <mxPoint x="-2" y="-14" as="offset" />
          </mxGeometry>
        </mxCell>
        <mxCell id="ERNmaeZfTY2ursN2km8a-9" value="" style="endArrow=none;html=1;rounded=0;entryX=0.5;entryY=0;entryDx=0;entryDy=0;exitX=0.5;exitY=1;exitDx=0;exitDy=0;strokeWidth=6;fillColor=#FFFFFF;fontColor=#000000;" parent="1" source="ERNmaeZfTY2ursN2km8a-6" target="IqhT8fRPCh5wSAFW7fhL-16" edge="1">
          <mxGeometry width="50" height="50" relative="1" as="geometry">
            <mxPoint x="453" y="680" as="sourcePoint" />
            <mxPoint x="260" y="800" as="targetPoint" />
          </mxGeometry>
        </mxCell>
        <mxCell id="ERNmaeZfTY2ursN2km8a-10" value="&lt;font style=&quot;font-size: 25px;&quot;&gt;M&lt;/font&gt;" style="edgeLabel;html=1;align=center;verticalAlign=middle;resizable=0;points=[];fillColor=#FFFFFF;fontColor=#000000;" parent="ERNmaeZfTY2ursN2km8a-9" vertex="1" connectable="0">
          <mxGeometry x="-0.4303" y="1" relative="1" as="geometry">
            <mxPoint y="57" as="offset" />
          </mxGeometry>
        </mxCell>
        <mxCell id="ERNmaeZfTY2ursN2km8a-12" value="" style="endArrow=none;html=1;rounded=0;exitX=0;exitY=0.5;exitDx=0;exitDy=0;entryX=1;entryY=0.5;entryDx=0;entryDy=0;strokeWidth=6;fillColor=#FFFFFF;fontColor=#000000;" parent="1" source="unJ9gnNb-Jezl2MU4Mml-12" target="ERNmaeZfTY2ursN2km8a-14" edge="1">
          <mxGeometry width="50" height="50" relative="1" as="geometry">
            <mxPoint x="550" y="212" as="sourcePoint" />
            <mxPoint x="850" y="862" as="targetPoint" />
          </mxGeometry>
        </mxCell>
        <mxCell id="ERNmaeZfTY2ursN2km8a-13" value="&lt;font style=&quot;font-size: 25px;&quot;&gt;N&lt;/font&gt;" style="edgeLabel;html=1;align=center;verticalAlign=middle;resizable=0;points=[];fillColor=#FFFFFF;fontColor=#000000;" parent="ERNmaeZfTY2ursN2km8a-12" vertex="1" connectable="0">
          <mxGeometry x="-0.4303" y="1" relative="1" as="geometry">
            <mxPoint as="offset" />
          </mxGeometry>
        </mxCell>
        <mxCell id="ERNmaeZfTY2ursN2km8a-14" value="&lt;font size=&quot;5&quot;&gt;&lt;span style=&quot;caret-color: rgb(255, 255, 255);&quot;&gt;belong to&lt;/span&gt;&lt;/font&gt;" style="rhombus;whiteSpace=wrap;html=1;fillColor=#FFFFFF;fontColor=#000000;" parent="1" vertex="1">
          <mxGeometry x="701" y="782" width="140" height="140" as="geometry" />
        </mxCell>
        <mxCell id="ERNmaeZfTY2ursN2km8a-15" value="" style="endArrow=none;html=1;rounded=0;exitX=0;exitY=0.5;exitDx=0;exitDy=0;entryX=1;entryY=0.5;entryDx=0;entryDy=0;strokeWidth=6;fillColor=#FFFFFF;fontColor=#000000;" parent="1" source="ERNmaeZfTY2ursN2km8a-14" target="IqhT8fRPCh5wSAFW7fhL-16" edge="1">
          <mxGeometry width="50" height="50" relative="1" as="geometry">
            <mxPoint x="463" y="572" as="sourcePoint" />
            <mxPoint x="565" y="852" as="targetPoint" />
          </mxGeometry>
        </mxCell>
        <mxCell id="ERNmaeZfTY2ursN2km8a-16" value="&lt;font style=&quot;font-size: 25px;&quot;&gt;M&lt;/font&gt;" style="edgeLabel;html=1;align=center;verticalAlign=middle;resizable=0;points=[];fillColor=#FFFFFF;fontColor=#000000;" parent="ERNmaeZfTY2ursN2km8a-15" vertex="1" connectable="0">
          <mxGeometry x="-0.4303" y="1" relative="1" as="geometry">
            <mxPoint x="-62" y="-1" as="offset" />
          </mxGeometry>
        </mxCell>
        <mxCell id="ERNmaeZfTY2ursN2km8a-17" value="&lt;font style=&quot;font-size: 24px;&quot;&gt;have&lt;/font&gt;" style="rhombus;whiteSpace=wrap;html=1;fillColor=#FFFFFF;fontColor=#000000;" parent="1" vertex="1">
          <mxGeometry x="380" y="10" width="140" height="140" as="geometry" />
        </mxCell>
        <mxCell id="ERNmaeZfTY2ursN2km8a-18" value="" style="endArrow=none;html=1;rounded=0;exitX=0.5;exitY=0;exitDx=0;exitDy=0;entryX=0.5;entryY=1;entryDx=0;entryDy=0;strokeWidth=6;fillColor=#FFFFFF;fontColor=#000000;" parent="1" source="unJ9gnNb-Jezl2MU4Mml-9" target="ERNmaeZfTY2ursN2km8a-17" edge="1">
          <mxGeometry width="50" height="50" relative="1" as="geometry">
            <mxPoint x="300" y="80" as="sourcePoint" />
            <mxPoint x="410" y="80" as="targetPoint" />
          </mxGeometry>
        </mxCell>
        <mxCell id="ERNmaeZfTY2ursN2km8a-19" value="&lt;font style=&quot;font-size: 25px;&quot;&gt;1&lt;/font&gt;" style="edgeLabel;html=1;align=center;verticalAlign=middle;resizable=0;points=[];fillColor=#FFFFFF;fontColor=#000000;" parent="ERNmaeZfTY2ursN2km8a-18" vertex="1" connectable="0">
          <mxGeometry x="-0.4303" y="1" relative="1" as="geometry">
            <mxPoint as="offset" />
          </mxGeometry>
        </mxCell>
        <mxCell id="ERNmaeZfTY2ursN2km8a-20" value="" style="endArrow=none;html=1;rounded=0;exitX=0.5;exitY=0;exitDx=0;exitDy=0;entryX=0.5;entryY=1;entryDx=0;entryDy=0;fillColor=#FFFFFF;fontColor=#000000;" parent="1" source="ERNmaeZfTY2ursN2km8a-17" target="IqhT8fRPCh5wSAFW7fhL-5" edge="1">
          <mxGeometry width="50" height="50" relative="1" as="geometry">
            <mxPoint x="460" y="200" as="sourcePoint" />
            <mxPoint x="445" y="-150" as="targetPoint" />
          </mxGeometry>
        </mxCell>
        <mxCell id="ERNmaeZfTY2ursN2km8a-21" value="M" style="edgeLabel;html=1;align=center;verticalAlign=middle;resizable=0;points=[];fontSize=24;fillColor=#FFFFFF;fontColor=#000000;" parent="ERNmaeZfTY2ursN2km8a-20" vertex="1" connectable="0">
          <mxGeometry x="0.0917" y="-2" relative="1" as="geometry">
            <mxPoint as="offset" />
          </mxGeometry>
        </mxCell>
        <mxCell id="ERNmaeZfTY2ursN2km8a-23" value="&lt;font style=&quot;font-size: 24px;&quot;&gt;are part of&lt;/font&gt;" style="rhombus;whiteSpace=wrap;html=1;fillColor=#FFFFFF;rotation=25;fontColor=#000000;" parent="1" vertex="1">
          <mxGeometry x="640" y="-50" width="140" height="140" as="geometry" />
        </mxCell>
        <mxCell id="ERNmaeZfTY2ursN2km8a-24" value="&lt;font style=&quot;font-size: 24px;&quot;&gt;are part of&lt;/font&gt;" style="rhombus;whiteSpace=wrap;html=1;fillColor=#FFFFFF;fontColor=#000000;" parent="1" vertex="1">
          <mxGeometry x="930" y="-60" width="140" height="140" as="geometry" />
        </mxCell>
        <mxCell id="ERNmaeZfTY2ursN2km8a-26" value="" style="endArrow=none;html=1;rounded=0;exitX=0;exitY=1;exitDx=0;exitDy=0;entryX=0.5;entryY=0;entryDx=0;entryDy=0;strokeWidth=6;fillColor=#FFFFFF;fontColor=#000000;" parent="1" source="unJ9gnNb-Jezl2MU4Mml-15" target="ERNmaeZfTY2ursN2km8a-23" edge="1">
          <mxGeometry width="50" height="50" relative="1" as="geometry">
            <mxPoint x="615" y="-430" as="sourcePoint" />
            <mxPoint x="455" y="-270" as="targetPoint" />
          </mxGeometry>
        </mxCell>
        <mxCell id="IqhT8fRPCh5wSAFW7fhL-14" value="N" style="edgeLabel;html=1;align=center;verticalAlign=middle;resizable=0;points=[];fontSize=24;fillColor=#FFFFFF;fontColor=#000000;" vertex="1" connectable="0" parent="ERNmaeZfTY2ursN2km8a-26">
          <mxGeometry x="-0.4321" y="-1" relative="1" as="geometry">
            <mxPoint as="offset" />
          </mxGeometry>
        </mxCell>
        <mxCell id="ERNmaeZfTY2ursN2km8a-27" value="" style="endArrow=none;html=1;rounded=0;exitX=0.5;exitY=1;exitDx=0;exitDy=0;entryX=1;entryY=0;entryDx=0;entryDy=0;strokeWidth=6;fillColor=#FFFFFF;fontColor=#000000;" parent="1" source="ERNmaeZfTY2ursN2km8a-23" target="unJ9gnNb-Jezl2MU4Mml-9" edge="1">
          <mxGeometry width="50" height="50" relative="1" as="geometry">
            <mxPoint x="900" y="-290" as="sourcePoint" />
            <mxPoint x="730" y="-70" as="targetPoint" />
          </mxGeometry>
        </mxCell>
        <mxCell id="IqhT8fRPCh5wSAFW7fhL-13" value="M" style="edgeLabel;html=1;align=center;verticalAlign=middle;resizable=0;points=[];fontSize=24;fillColor=#FFFFFF;fontColor=#000000;" vertex="1" connectable="0" parent="ERNmaeZfTY2ursN2km8a-27">
          <mxGeometry x="0.4292" y="5" relative="1" as="geometry">
            <mxPoint as="offset" />
          </mxGeometry>
        </mxCell>
        <mxCell id="ERNmaeZfTY2ursN2km8a-28" value="" style="endArrow=none;html=1;rounded=0;exitX=0.5;exitY=1;exitDx=0;exitDy=0;entryX=0.5;entryY=0;entryDx=0;entryDy=0;strokeWidth=6;fillColor=#FFFFFF;fontColor=#000000;" parent="1" source="unJ9gnNb-Jezl2MU4Mml-15" target="ERNmaeZfTY2ursN2km8a-24" edge="1">
          <mxGeometry width="50" height="50" relative="1" as="geometry">
            <mxPoint x="900" y="-230" as="sourcePoint" />
            <mxPoint x="750" y="-33" as="targetPoint" />
          </mxGeometry>
        </mxCell>
        <mxCell id="IqhT8fRPCh5wSAFW7fhL-12" value="N" style="edgeLabel;html=1;align=center;verticalAlign=middle;resizable=0;points=[];fontSize=24;fillColor=#FFFFFF;fontColor=#000000;" vertex="1" connectable="0" parent="ERNmaeZfTY2ursN2km8a-28">
          <mxGeometry x="-0.5148" y="2" relative="1" as="geometry">
            <mxPoint as="offset" />
          </mxGeometry>
        </mxCell>
        <mxCell id="ERNmaeZfTY2ursN2km8a-29" value="" style="endArrow=none;html=1;rounded=0;entryX=0.5;entryY=0;entryDx=0;entryDy=0;exitX=0.5;exitY=1;exitDx=0;exitDy=0;strokeWidth=6;fillColor=#FFFFFF;fontColor=#000000;" parent="1" source="ERNmaeZfTY2ursN2km8a-24" target="unJ9gnNb-Jezl2MU4Mml-10" edge="1">
          <mxGeometry width="50" height="50" relative="1" as="geometry">
            <mxPoint x="1000" y="70" as="sourcePoint" />
            <mxPoint x="1010" y="-50" as="targetPoint" />
          </mxGeometry>
        </mxCell>
        <mxCell id="IqhT8fRPCh5wSAFW7fhL-11" value="M" style="edgeLabel;html=1;align=center;verticalAlign=middle;resizable=0;points=[];fontSize=24;fillColor=#FFFFFF;fontColor=#000000;" vertex="1" connectable="0" parent="ERNmaeZfTY2ursN2km8a-29">
          <mxGeometry x="0.4549" y="7" relative="1" as="geometry">
            <mxPoint x="-7" as="offset" />
          </mxGeometry>
        </mxCell>
        <mxCell id="ERNmaeZfTY2ursN2km8a-30" value="&lt;font size=&quot;5&quot;&gt;&lt;span style=&quot;caret-color: rgb(255, 255, 255);&quot;&gt;include&lt;/span&gt;&lt;/font&gt;" style="rhombus;whiteSpace=wrap;html=1;fillColor=#FFFFFF;fontColor=#000000;" parent="1" vertex="1">
          <mxGeometry x="70" y="-280" width="140" height="140" as="geometry" />
        </mxCell>
        <mxCell id="ERNmaeZfTY2ursN2km8a-31" value="" style="endArrow=none;html=1;rounded=0;exitX=1;exitY=0.5;exitDx=0;exitDy=0;entryX=0;entryY=0.5;entryDx=0;entryDy=0;fillColor=#FFFFFF;fontColor=#000000;" parent="1" source="unJ9gnNb-Jezl2MU4Mml-11" target="ERNmaeZfTY2ursN2km8a-30" edge="1">
          <mxGeometry width="50" height="50" relative="1" as="geometry">
            <mxPoint x="315" y="-430" as="sourcePoint" />
            <mxPoint x="455" y="-270" as="targetPoint" />
          </mxGeometry>
        </mxCell>
        <mxCell id="IqhT8fRPCh5wSAFW7fhL-10" value="1" style="edgeLabel;html=1;align=center;verticalAlign=middle;resizable=0;points=[];fontSize=24;fillColor=#FFFFFF;fontColor=#000000;" vertex="1" connectable="0" parent="ERNmaeZfTY2ursN2km8a-31">
          <mxGeometry x="-0.5" y="-2" relative="1" as="geometry">
            <mxPoint as="offset" />
          </mxGeometry>
        </mxCell>
        <mxCell id="ERNmaeZfTY2ursN2km8a-32" value="" style="endArrow=none;html=1;rounded=0;exitX=1;exitY=0.5;exitDx=0;exitDy=0;entryX=0;entryY=0.5;entryDx=0;entryDy=0;fillColor=#FFFFFF;fontColor=#000000;" parent="1" source="ERNmaeZfTY2ursN2km8a-30" target="IqhT8fRPCh5wSAFW7fhL-5" edge="1">
          <mxGeometry width="50" height="50" relative="1" as="geometry">
            <mxPoint x="-40" y="-200" as="sourcePoint" />
            <mxPoint x="335" y="-210" as="targetPoint" />
          </mxGeometry>
        </mxCell>
        <mxCell id="IqhT8fRPCh5wSAFW7fhL-9" value="1" style="edgeLabel;html=1;align=center;verticalAlign=middle;resizable=0;points=[];fontSize=24;fillColor=#FFFFFF;fontColor=#000000;" vertex="1" connectable="0" parent="ERNmaeZfTY2ursN2km8a-32">
          <mxGeometry x="0.4513" relative="1" as="geometry">
            <mxPoint as="offset" />
          </mxGeometry>
        </mxCell>
        <mxCell id="IqhT8fRPCh5wSAFW7fhL-7" value="" style="group;fillColor=#FFFFFF;fontColor=#000000;" vertex="1" connectable="0" parent="1">
          <mxGeometry x="323" y="-275" width="260" height="130" as="geometry" />
        </mxCell>
        <mxCell id="IqhT8fRPCh5wSAFW7fhL-5" value="" style="rounded=0;whiteSpace=wrap;html=1;fillColor=#FFFFFF;fontColor=#000000;" vertex="1" parent="IqhT8fRPCh5wSAFW7fhL-7">
          <mxGeometry width="260" height="130" as="geometry" />
        </mxCell>
        <mxCell id="IqhT8fRPCh5wSAFW7fhL-6" value="&lt;h1 style=&quot;border-color: var(--border-color);&quot;&gt;&lt;strong style=&quot;border: 0px solid rgb(227, 227, 227); box-sizing: border-box; caret-color: rgb(236, 236, 236); font-family: Söhne, ui-sans-serif, system-ui, -apple-system, &amp;quot;Segoe UI&amp;quot;, Roboto, Ubuntu, Cantarell, &amp;quot;Noto Sans&amp;quot;, sans-serif, &amp;quot;Helvetica Neue&amp;quot;, Arial, &amp;quot;Apple Color Emoji&amp;quot;, &amp;quot;Segoe UI Emoji&amp;quot;, &amp;quot;Segoe UI Symbol&amp;quot;, &amp;quot;Noto Color Emoji&amp;quot;; text-align: left;&quot;&gt;&lt;font style=&quot;border-color: var(--border-color);&quot;&gt;RecipeDirections&lt;/font&gt;&lt;/strong&gt;&lt;/h1&gt;" style="rounded=0;whiteSpace=wrap;html=1;perimeterSpacing=7;strokeColor=#FFFFFF;fillColor=#FFFFFF;fontColor=#000000;" vertex="1" parent="IqhT8fRPCh5wSAFW7fhL-7">
          <mxGeometry x="13.333333333333332" y="13" width="233.33333333333331" height="104" as="geometry" />
        </mxCell>
        <mxCell id="IqhT8fRPCh5wSAFW7fhL-15" value="" style="group;fillColor=#FFFFFF;fontColor=#000000;" vertex="1" connectable="0" parent="1">
          <mxGeometry x="320" y="787" width="260" height="130" as="geometry" />
        </mxCell>
        <mxCell id="IqhT8fRPCh5wSAFW7fhL-16" value="" style="rounded=0;whiteSpace=wrap;html=1;fillColor=#FFFFFF;fontColor=#000000;" vertex="1" parent="IqhT8fRPCh5wSAFW7fhL-15">
          <mxGeometry width="260" height="130" as="geometry" />
        </mxCell>
        <mxCell id="IqhT8fRPCh5wSAFW7fhL-17" value="&lt;h1 style=&quot;border-color: var(--border-color);&quot;&gt;&lt;strong style=&quot;border: 0px solid rgb(227, 227, 227); box-sizing: border-box; caret-color: rgb(236, 236, 236); font-family: Söhne, ui-sans-serif, system-ui, -apple-system, &amp;quot;Segoe UI&amp;quot;, Roboto, Ubuntu, Cantarell, &amp;quot;Noto Sans&amp;quot;, sans-serif, &amp;quot;Helvetica Neue&amp;quot;, Arial, &amp;quot;Apple Color Emoji&amp;quot;, &amp;quot;Segoe UI Emoji&amp;quot;, &amp;quot;Segoe UI Symbol&amp;quot;, &amp;quot;Noto Color Emoji&amp;quot;; text-align: left;&quot;&gt;&lt;font style=&quot;border-color: var(--border-color);&quot;&gt;RecipeCategories&lt;/font&gt;&lt;/strong&gt;&lt;/h1&gt;" style="rounded=0;whiteSpace=wrap;html=1;perimeterSpacing=7;strokeColor=#FFFFFF;fillColor=#FFFFFF;fontColor=#000000;" vertex="1" parent="IqhT8fRPCh5wSAFW7fhL-15">
          <mxGeometry x="13.333333333333332" y="13" width="233.33333333333331" height="104" as="geometry" />
        </mxCell>
        <mxCell id="IqhT8fRPCh5wSAFW7fhL-18" value="" style="endArrow=none;html=1;rounded=0;exitX=1;exitY=0.5;exitDx=0;exitDy=0;entryX=0;entryY=0.5;entryDx=0;entryDy=0;strokeWidth=8;fillColor=#FFFFFF;fontColor=#000000;" edge="1" parent="1" source="ERNmaeZfTY2ursN2km8a-30" target="IqhT8fRPCh5wSAFW7fhL-5">
          <mxGeometry width="50" height="50" relative="1" as="geometry">
            <mxPoint x="220" y="-200" as="sourcePoint" />
            <mxPoint x="333" y="-200" as="targetPoint" />
          </mxGeometry>
        </mxCell>
        <mxCell id="IqhT8fRPCh5wSAFW7fhL-19" value="1" style="edgeLabel;html=1;align=center;verticalAlign=middle;resizable=0;points=[];fontSize=24;fillColor=#FFFFFF;fontColor=#000000;" vertex="1" connectable="0" parent="IqhT8fRPCh5wSAFW7fhL-18">
          <mxGeometry x="0.4513" relative="1" as="geometry">
            <mxPoint as="offset" />
          </mxGeometry>
        </mxCell>
      </root>
    </mxGraphModel>
  </diagram>
</mxfile>
